<?xml version="1.0" encoding="UTF-8" standalone="no"?>
<!DOCTYPE svg PUBLIC "-//W3C//DTD SVG 1.1//EN"
 "http://www.w3.org/Graphics/SVG/1.1/DTD/svg11.dtd">
<!-- Generated by graphviz version 2.47.0 (20210316.0004)
 -->
<!-- Title: dependencies Pages: 1 -->
<svg width="728pt" height="347pt"
 viewBox="0.00 0.00 728.00 347.00" xmlns="http://www.w3.org/2000/svg" xmlns:xlink="http://www.w3.org/1999/xlink">
<g id="graph0" class="graph" transform="scale(1 1) rotate(0) translate(4 343)">
<title>dependencies</title>
<polygon fill="white" stroke="transparent" points="-4,4 -4,-343 724,-343 724,4 -4,4"/>
<text text-anchor="start" x="339.01" y="-42.4" font-family="Times-12" font-weight="bold" font-size="14.00">Legend</text>
<polygon fill="#ffffb3" stroke="transparent" points="126,-10 126,-30 146,-30 146,-10 126,-10"/>
<text text-anchor="start" x="149.63" y="-15.4" font-family="Times-12" font-size="14.00"> &#160;Declarations</text>
<polygon fill="#8dd3c7" stroke="transparent" points="239,-10 239,-30 259,-30 259,-10 239,-10"/>
<text text-anchor="start" x="262.73" y="-15.4" font-family="Times-12" font-size="14.00"> &#160;Module</text>
<polygon fill="#80b1d3" stroke="transparent" points="325,-10 325,-30 345,-30 345,-10 325,-10"/>
<text text-anchor="start" x="348.78" y="-15.4" font-family="Times-12" font-size="14.00"> &#160;Bootstrap</text>
<polygon fill="#fdb462" stroke="transparent" points="422,-10 422,-30 442,-30 442,-10 422,-10"/>
<text text-anchor="start" x="445.67" y="-15.4" font-family="Times-12" font-size="14.00"> &#160;Providers</text>
<polygon fill="#fb8072" stroke="transparent" points="518,-10 518,-30 538,-30 538,-10 518,-10"/>
<text text-anchor="start" x="541.73" y="-15.4" font-family="Times-12" font-size="14.00"> &#160;Exports</text>
<g id="clust13" class="cluster">
<title>cluster_PostsModule</title>
<polygon fill="none" stroke="black" stroke-dasharray="1,5" points="162,-138 162,-266 430,-266 430,-138 162,-138"/>
</g>
<g id="clust18" class="cluster">
<title>cluster_PostsModule_providers</title>
<polygon fill="none" stroke="black" points="170,-146 170,-198 306,-198 306,-146 170,-146"/>
</g>
<g id="clust15" class="cluster">
<title>cluster_PostsModule_imports</title>
<polygon fill="none" stroke="black" points="314,-146 314,-198 422,-198 422,-146 314,-146"/>
</g>
<g id="clust7" class="cluster">
<title>cluster_AuthModule</title>
<polygon fill="none" stroke="black" stroke-dasharray="1,5" points="500,-70 500,-198 650,-198 650,-70 500,-70"/>
</g>
<g id="clust12" class="cluster">
<title>cluster_AuthModule_providers</title>
<polygon fill="none" stroke="black" points="508,-78 508,-130 642,-130 642,-78 508,-78"/>
</g>
<g id="clust1" class="cluster">
<title>cluster_AppModule</title>
<polygon fill="none" stroke="black" stroke-dasharray="1,5" points="8,-206 8,-331 154,-331 154,-206 8,-206"/>
</g>
<g id="clust6" class="cluster">
<title>cluster_AppModule_providers</title>
<polygon fill="none" stroke="black" points="16,-214 16,-266 146,-266 146,-214 16,-214"/>
</g>
<g id="clust19" class="cluster">
<title>cluster_UsersModule</title>
<polygon fill="none" stroke="black" stroke-dasharray="1,5" points="438,-206 438,-274 712,-274 712,-206 438,-206"/>
</g>
<g id="clust22" class="cluster">
<title>cluster_UsersModule_exports</title>
<polygon fill="none" stroke="black" points="594,-214 594,-266 704,-266 704,-214 594,-214"/>
</g>
<g id="clust24" class="cluster">
<title>cluster_UsersModule_providers</title>
<polygon fill="none" stroke="black" points="446,-214 446,-266 586,-266 586,-214 446,-214"/>
</g>
<!-- AuthModule -->
<g id="node1" class="node">
<title>AuthModule</title>
<polygon fill="#8dd3c7" stroke="black" points="629.55,-190 626.55,-194 605.55,-194 602.55,-190 542.45,-190 542.45,-154 629.55,-154 629.55,-190"/>
<text text-anchor="middle" x="586" y="-167.8" font-family="Times,serif" font-size="14.00">AuthModule</text>
</g>
<!-- AppModule -->
<g id="node4" class="node">
<title>AppModule</title>
<polygon fill="#8dd3c7" stroke="black" points="145.66,-323 142.66,-327 121.66,-327 118.66,-323 62.34,-323 62.34,-287 145.66,-287 145.66,-323"/>
<text text-anchor="middle" x="104" y="-300.8" font-family="Times,serif" font-size="14.00">AppModule</text>
</g>
<!-- AuthModule&#45;&gt;AppModule -->
<g id="edge1" class="edge">
<title>AuthModule&#45;&gt;AppModule</title>
<path fill="none" stroke="black" d="M590.15,-190.17C590.15,-227.85 590.15,-311 590.15,-311 590.15,-311 155.87,-311 155.87,-311"/>
<polygon fill="black" stroke="black" points="155.87,-307.5 145.87,-311 155.87,-314.5 155.87,-307.5"/>
</g>
<!-- PostsModule -->
<g id="node2" class="node">
<title>PostsModule</title>
<polygon fill="#8dd3c7" stroke="black" points="282.61,-258 279.61,-262 258.61,-262 255.61,-258 193.39,-258 193.39,-222 282.61,-222 282.61,-258"/>
<text text-anchor="middle" x="238" y="-235.8" font-family="Times,serif" font-size="14.00">PostsModule</text>
</g>
<!-- PostsModule&#45;&gt;AppModule -->
<g id="edge2" class="edge">
<title>PostsModule&#45;&gt;AppModule</title>
<path fill="none" stroke="black" d="M193.24,-240C168.1,-240 141.72,-240 141.72,-240 141.72,-240 141.72,-276.89 141.72,-276.89"/>
<polygon fill="black" stroke="black" points="138.22,-276.89 141.72,-286.89 145.22,-276.89 138.22,-276.89"/>
</g>
<!-- UsersModule -->
<g id="node3" class="node">
<title>UsersModule</title>
<polygon fill="#8dd3c7" stroke="black" points="413.92,-190 410.92,-194 389.92,-194 386.92,-190 322.08,-190 322.08,-154 413.92,-154 413.92,-190"/>
<text text-anchor="middle" x="368" y="-167.8" font-family="Times,serif" font-size="14.00">UsersModule</text>
</g>
<!-- UsersModule&#45;&gt;PostsModule -->
<g id="edge6" class="edge">
<title>UsersModule&#45;&gt;PostsModule</title>
<path fill="none" stroke="black" d="M345.14,-190.22C345.14,-210.37 345.14,-240 345.14,-240 345.14,-240 292.82,-240 292.82,-240"/>
<polygon fill="black" stroke="black" points="292.82,-236.5 282.82,-240 292.82,-243.5 292.82,-236.5"/>
</g>
<!-- UsersModule&#45;&gt;AppModule -->
<g id="edge3" class="edge">
<title>UsersModule&#45;&gt;AppModule</title>
<path fill="none" stroke="black" d="M368,-190.2C368,-225.31 368,-299 368,-299 368,-299 155.83,-299 155.83,-299"/>
<polygon fill="black" stroke="black" points="155.83,-295.5 145.83,-299 155.83,-302.5 155.83,-295.5"/>
</g>
<!-- UsersService  -->
<g id="node8" class="node">
<title>UsersService </title>
<polygon fill="#fb8072" stroke="black" points="695.85,-258 602.15,-258 602.15,-222 695.85,-222 695.85,-258"/>
<text text-anchor="middle" x="649" y="-235.8" font-family="Times,serif" font-size="14.00">UsersService </text>
</g>
<!-- UsersModule&#45;&gt;UsersService  -->
<g id="edge8" class="edge">
<title>UsersModule&#45;&gt;UsersService </title>
<path fill="none" stroke="black" stroke-dasharray="5,2" d="M390.86,-190.19C390.86,-198.28 390.86,-206 390.86,-206 390.86,-206 616.05,-206 616.05,-206 616.05,-206 616.05,-211.81 616.05,-211.81"/>
<polygon fill="black" stroke="black" points="612.55,-211.81 616.05,-221.81 619.55,-211.81 612.55,-211.81"/>
</g>
<!-- AppService -->
<g id="node5" class="node">
<title>AppService</title>
<ellipse fill="#fdb462" stroke="black" cx="81" cy="-240" rx="56.74" ry="18"/>
<text text-anchor="middle" x="81" y="-235.8" font-family="Times,serif" font-size="14.00">AppService</text>
</g>
<!-- AppService&#45;&gt;AppModule -->
<g id="edge4" class="edge">
<title>AppService&#45;&gt;AppModule</title>
<path fill="none" stroke="black" d="M99.9,-257.08C99.9,-257.08 99.9,-276.9 99.9,-276.9"/>
<polygon fill="black" stroke="black" points="96.4,-276.9 99.9,-286.9 103.4,-276.9 96.4,-276.9"/>
</g>
<!-- AuthService -->
<g id="node6" class="node">
<title>AuthService</title>
<ellipse fill="#fdb462" stroke="black" cx="575" cy="-104" rx="59.11" ry="18"/>
<text text-anchor="middle" x="575" y="-99.8" font-family="Times,serif" font-size="14.00">AuthService</text>
</g>
<!-- AuthService&#45;&gt;AuthModule -->
<g id="edge5" class="edge">
<title>AuthService&#45;&gt;AuthModule</title>
<path fill="none" stroke="black" d="M586,-121.87C586,-121.87 586,-143.54 586,-143.54"/>
<polygon fill="black" stroke="black" points="582.5,-143.54 586,-153.54 589.5,-143.54 582.5,-143.54"/>
</g>
<!-- AuthService&#45;&gt;UsersModule -->
<g id="edge9" class="edge">
<title>AuthService&#45;&gt;UsersModule</title>
<path fill="none" stroke="black" d="M528.96,-115.37C528.96,-133.27 528.96,-166 528.96,-166 528.96,-166 424.13,-166 424.13,-166"/>
<polygon fill="black" stroke="black" points="424.13,-162.5 414.13,-166 424.13,-169.5 424.13,-162.5"/>
</g>
<!-- PostsService -->
<g id="node7" class="node">
<title>PostsService</title>
<ellipse fill="#fdb462" stroke="black" cx="238" cy="-172" rx="60.27" ry="18"/>
<text text-anchor="middle" x="238" y="-167.8" font-family="Times,serif" font-size="14.00">PostsService</text>
</g>
<!-- PostsService&#45;&gt;PostsModule -->
<g id="edge7" class="edge">
<title>PostsService&#45;&gt;PostsModule</title>
<path fill="none" stroke="black" d="M238,-190.22C238,-190.22 238,-211.73 238,-211.73"/>
<polygon fill="black" stroke="black" points="234.5,-211.73 238,-221.73 241.5,-211.73 234.5,-211.73"/>
</g>
<!-- UsersService -->
<g id="node9" class="node">
<title>UsersService</title>
<ellipse fill="#fdb462" stroke="black" cx="516" cy="-240" rx="61.95" ry="18"/>
<text text-anchor="middle" x="516" y="-235.8" font-family="Times,serif" font-size="14.00">UsersService</text>
</g>
<!-- UsersService&#45;&gt;UsersModule -->
<g id="edge10" class="edge">
<title>UsersService&#45;&gt;UsersModule</title>
<path fill="none" stroke="black" d="M484.86,-224.35C484.86,-205.99 484.86,-178 484.86,-178 484.86,-178 423.85,-178 423.85,-178"/>
<polygon fill="black" stroke="black" points="423.85,-174.5 413.85,-178 423.85,-181.5 423.85,-174.5"/>
</g>
</g>
</svg>
